<?xml version="1.0" encoding="utf-8"?>
<!-- Generator: Adobe Illustrator 25.3.1, SVG Export Plug-In . SVG Version: 6.00 Build 0)  -->
<svg version="1.1" id="Layer_1" xmlns="http://www.w3.org/2000/svg" xmlns:xlink="http://www.w3.org/1999/xlink" x="0px" y="0px"
	 viewBox="0 0 264.111 213.967" enable-background="new 0 0 264.111 213.967" xml:space="preserve">
<g>
	<path fill="#D1D3D4" stroke="#D1D3D4" stroke-width="4.5666" stroke-miterlimit="10" d="M258.675,114.674
		c0,22.802-5.177,39.182-15.528,49.141c-7.601,7.336-18.413,11.006-32.435,11.006c-9.173,0-19.723-1.766-31.645-5.307l-3.539-31.645
		c7.47,4.719,14.479,7.077,21.031,7.077c9.959,0,16.512-3.604,19.658-10.81c1.832-4.326,2.751-10.814,2.751-19.462V22.485h39.706
		V114.674z"/>
	<path fill="#FFDE17" d="M258.675,32.759v81.914c0,22.802-5.177,39.182-15.528,49.141c-7.601,7.336-18.413,11.006-32.435,11.006
		c-9.173,0-19.723-1.766-31.645-5.307l-3.539-31.645c7.47,4.719,14.479,7.077,21.031,7.077c9.959,0,16.512-3.604,19.658-10.81
		c1.832-4.326,2.751-10.814,2.751-19.462V32.759c0,0,4.688,0.404,11.251,0.975c6.564,0.571,5.424,0.571,9.99-0.285
		c4.567-0.857,7.136-1.427,10.561-0.571C254.195,33.734,258.019,33.783,258.675,32.759z"/>
	<circle fill="#FFDE17" cx="231.647" cy="9.474" r="2.854"/>
	<path fill="#FFDE17" d="M243.634,15.753c0,1.577-1.279,2.854-2.852,2.854c-1.579,0-2.855-1.277-2.855-2.854
		c0-1.577,1.275-2.854,2.855-2.854C242.354,12.899,243.634,14.176,243.634,15.753z"/>
	<path fill="#FFDE17" d="M249.058,3.623c0,1.34-1.088,2.426-2.43,2.426c-1.338,0-2.422-1.086-2.422-2.426
		c0-1.34,1.084-2.426,2.422-2.426C247.97,1.197,249.058,2.283,249.058,3.623z"/>
	<circle fill="#FFFFFF" cx="228.223" cy="43.438" r="2.854"/>
	<path fill="#FFFFFF" d="M232.503,27.455c0,1.577-1.277,2.854-2.853,2.854c-1.579,0-2.854-1.278-2.854-2.854
		c0-1.576,1.275-2.854,2.854-2.854C231.226,24.601,232.503,25.879,232.503,27.455z"/>
	<path fill="#FFFFFF" d="M244.491,47.149c0,1.577-1.279,2.854-2.854,2.854c-1.578,0-2.855-1.277-2.855-2.854
		c0-1.577,1.276-2.854,2.855-2.854C243.212,44.295,244.491,45.572,244.491,47.149z"/>
	<path fill="#FFFFFF" d="M245.062,64.131c0,1.34-1.087,2.426-2.431,2.426c-1.338,0-2.422-1.086-2.422-2.426
		c0-1.34,1.084-2.426,2.422-2.426C243.976,61.705,245.062,62.791,245.062,64.131z"/>
	<path fill="#FFFFFF" d="M255.908,45.294c0,1.024-0.834,1.855-1.859,1.855c-1.023,0-1.852-0.831-1.852-1.855
		c0-1.025,0.828-1.855,1.852-1.855C255.074,43.438,255.908,44.269,255.908,45.294z"/>
	<path fill="#FFFFFF" d="M240.349,38.015c0,1.024-0.828,1.855-1.85,1.855c-1.028,0-1.857-0.831-1.857-1.855
		c0-1.024,0.829-1.855,1.857-1.855C239.52,36.16,240.349,36.991,240.349,38.015z"/>
	<path fill="#FFFFFF" d="M234.501,52.143c0,1.025-0.832,1.855-1.857,1.855c-1.025,0-1.852-0.831-1.852-1.855
		c0-1.024,0.827-1.855,1.852-1.855C233.669,50.288,234.501,51.119,234.501,52.143z"/>
	
		<line fill="none" stroke="#BCBEC0" stroke-width="2.1979" stroke-linecap="round" stroke-miterlimit="10" x1="215.379" y1="20.89" x2="262.186" y2="20.89"/>
</g>
<g>
	<path d="M19.75,211.881h-6.384v-9.99H8.579v9.99H2.26v-23.81h6.319v8.649h4.787v-8.649h6.384V211.881z"/>
	<path d="M35.289,205.256h-8.711v0.226c0,0.658,0.254,1.278,0.761,1.86c0.771,0.846,1.927,1.278,3.468,1.297
		c1.56,0.02,2.95-0.413,4.173-1.297l-0.451,3.665c-1.466,0.771-3.092,1.156-4.877,1.156c-2.876,0-5-0.959-6.372-2.876
		c-0.996-1.391-1.494-3.054-1.494-4.989c0-2.105,0.424-3.881,1.27-5.328c1.184-2.067,3.072-3.11,5.666-3.13
		c2.519-0.019,4.322,0.987,5.413,3.017c0.771,1.392,1.155,3.186,1.155,5.385V205.256z M30.807,202.605
		c0-2.312-0.695-3.485-2.086-3.523c-1.429-0.037-2.143,1.138-2.143,3.523H30.807z"/>
	<path d="M41.97,211.881h-4.68v-21.144h4.68V211.881z"/>
	<path d="M49.835,211.881h-4.68v-21.144h4.68V211.881z"/>
	<path d="M65.256,205.256h-8.711v0.226c0,0.658,0.254,1.278,0.761,1.86c0.771,0.846,1.927,1.278,3.468,1.297
		c1.56,0.02,2.95-0.413,4.173-1.297l-0.451,3.665c-1.466,0.771-3.092,1.156-4.877,1.156c-2.876,0-5-0.959-6.372-2.876
		c-0.996-1.391-1.494-3.054-1.494-4.989c0-2.105,0.424-3.881,1.27-5.328c1.184-2.067,3.072-3.11,5.666-3.13
		c2.519-0.019,4.322,0.987,5.413,3.017c0.771,1.392,1.155,3.186,1.155,5.385V205.256z M60.773,202.605
		c0-2.312-0.695-3.485-2.086-3.523c-1.429-0.037-2.143,1.138-2.143,3.523H60.773z"/>
	<path d="M80.056,211.881h-4.792v-9.754c0-0.959-0.066-1.607-0.197-1.945c-0.226-0.658-0.743-0.987-1.551-0.987
		c-0.545,0-0.959,0.198-1.24,0.593c-0.376,0.507-0.564,1.391-0.564,2.649v9.444h-4.764v-15.702h4.764v2.368
		c0.17-0.583,0.545-1.138,1.128-1.664c0.789-0.694,1.72-1.043,2.791-1.043c1.354,0,2.396,0.357,3.129,1.071
		c0.864,0.846,1.297,2.096,1.297,3.75V211.881z"/>
	<path d="M87.16,192.203c0,0.677-0.235,1.222-0.705,1.636c-0.47,0.413-1.137,0.63-2.001,0.648c-0.771,0.019-1.4-0.15-1.889-0.508
		c-0.546-0.413-0.818-1.005-0.818-1.776c0-0.657,0.264-1.184,0.79-1.578c0.525-0.395,1.165-0.593,1.917-0.593
		c0.846,0,1.508,0.202,1.987,0.606S87.16,191.564,87.16,192.203z M86.822,211.881h-4.765v-15.702h4.765V211.881z"/>
	<path d="M100.241,207.229l-0.282,4.172c-1.409,0.508-2.857,0.762-4.342,0.762c-1.936,0-3.505-0.526-4.708-1.579
		c-1.673-1.466-2.509-3.637-2.509-6.512c0-2.35,0.61-4.275,1.833-5.779c1.334-1.636,3.129-2.453,5.384-2.453
		c1.673,0,2.998,0.339,3.976,1.015l0.254,3.693c-0.696-0.695-1.654-1.043-2.876-1.043c-1.015,0-1.832,0.329-2.452,0.986
		c-0.715,0.771-1.071,1.89-1.071,3.355c0,3.082,1.212,4.623,3.637,4.623C98.493,208.469,99.545,208.056,100.241,207.229z"/>
	<path d="M122.131,193.21h-7.755v4.563h6.702v5.075h-6.702v9.032h-6.384v-23.81h14.139V193.21z"/>
	<path d="M133.358,200.548c-0.752-0.657-1.598-0.986-2.537-0.986c-0.997,0-1.758,0.433-2.284,1.297
		c-0.319,0.526-0.479,1.362-0.479,2.509v8.514h-4.765v-15.702h4.651v2.368c0.057-0.244,0.131-0.479,0.226-0.705
		c0.207-0.545,0.46-0.978,0.761-1.297c0.489-0.508,1.193-0.762,2.115-0.762c0.958,0,1.644,0.302,2.058,0.902L133.358,200.548z"/>
	<path d="M143.592,209.597c-0.828,1.673-2.219,2.509-4.173,2.509c-1.691,0-2.951-0.648-3.777-1.945
		c-0.546-0.864-0.817-2.273-0.817-4.229v-9.754h4.764v9.754c0,1.109,0.16,1.88,0.479,2.312c0.244,0.338,0.648,0.508,1.212,0.508
		c0.508,0,0.959-0.197,1.354-0.593c0.395-0.395,0.592-0.93,0.592-1.606v-10.374h4.765v15.702h-4.397V209.597z"/>
	<path d="M155.178,192.203c0,0.677-0.235,1.222-0.705,1.636c-0.47,0.413-1.137,0.63-2.001,0.648c-0.771,0.019-1.4-0.15-1.889-0.508
		c-0.546-0.413-0.818-1.005-0.818-1.776c0-0.657,0.264-1.184,0.79-1.578c0.525-0.395,1.165-0.593,1.917-0.593
		c0.846,0,1.508,0.202,1.987,0.606S155.178,191.564,155.178,192.203z M154.84,211.881h-4.765v-15.702h4.765V211.881z"/>
	<path d="M166.539,207.878l-0.395,3.523c-0.884,0.526-1.945,0.79-3.186,0.79c-1.448,0-2.604-0.433-3.468-1.297
		c-0.94-0.921-1.41-2.218-1.41-3.891v-7.725h-2.17l0.592-3.101h1.578v-2.933l4.765-0.732v3.665h3.439l-0.563,3.101h-2.876v7.386
		c0,0.546,0.179,0.982,0.536,1.312c0.356,0.329,0.798,0.493,1.324,0.493C165.439,208.469,166.05,208.272,166.539,207.878z"/>
	<path d="M177.73,207.229c0,1.541-0.62,2.772-1.861,3.692c-1.09,0.809-2.443,1.25-4.06,1.325c-1.202,0.057-2.34-0.056-3.411-0.338
		c-0.714-0.169-1.193-0.339-1.438-0.508l-0.31-4.06c1.466,0.94,2.791,1.41,3.975,1.41c1.372,0,2.058-0.526,2.058-1.579
		c0-0.62-0.507-1.202-1.521-1.748c-1.561-0.846-2.491-1.391-2.791-1.635c-1.016-0.846-1.514-1.964-1.494-3.354
		c0.019-1.484,0.545-2.632,1.578-3.439c0.921-0.733,2.114-1.118,3.58-1.156c1.786-0.037,3.393,0.301,4.821,1.015l0.31,3.327
		c-1.015-0.808-2.218-1.193-3.608-1.156c-1.203,0.038-1.804,0.526-1.804,1.466c0,0.451,0.281,0.874,0.846,1.269
		c0.188,0.132,0.789,0.471,1.804,1.016C176.621,203.94,177.73,205.425,177.73,207.229z"/>
	<path d="M198.557,203.04c0,3.702-0.841,6.362-2.521,7.979c-1.234,1.191-2.989,1.787-5.267,1.787c-1.489,0-3.202-0.287-5.138-0.862
		l-0.575-5.138c1.213,0.766,2.352,1.148,3.415,1.148c1.617,0,2.682-0.585,3.192-1.755c0.297-0.702,0.446-1.756,0.446-3.16v-14.969
		h6.447V203.04z"/>
	<path d="M210.36,209.597c-0.828,1.673-2.219,2.509-4.173,2.509c-1.691,0-2.951-0.648-3.777-1.945
		c-0.546-0.864-0.817-2.273-0.817-4.229v-9.754h4.764v9.754c0,1.109,0.16,1.88,0.479,2.312c0.244,0.338,0.648,0.508,1.212,0.508
		c0.508,0,0.959-0.197,1.354-0.593c0.395-0.395,0.592-0.93,0.592-1.606v-10.374h4.765v15.702h-4.397V209.597z"/>
	<path d="M221.946,192.203c0,0.677-0.235,1.222-0.705,1.636c-0.47,0.413-1.137,0.63-2.001,0.648c-0.771,0.019-1.4-0.15-1.889-0.508
		c-0.546-0.413-0.818-1.005-0.818-1.776c0-0.657,0.264-1.184,0.79-1.578c0.525-0.395,1.165-0.593,1.917-0.593
		c0.846,0,1.508,0.202,1.987,0.606S221.946,191.564,221.946,192.203z M221.608,211.881h-4.765v-15.702h4.765V211.881z"/>
	<path d="M235.027,207.229l-0.282,4.172c-1.409,0.508-2.857,0.762-4.342,0.762c-1.936,0-3.505-0.526-4.708-1.579
		c-1.673-1.466-2.509-3.637-2.509-6.512c0-2.35,0.61-4.275,1.833-5.779c1.334-1.636,3.129-2.453,5.384-2.453
		c1.673,0,2.998,0.339,3.976,1.015l0.254,3.693c-0.696-0.695-1.654-1.043-2.876-1.043c-1.015,0-1.832,0.329-2.452,0.986
		c-0.715,0.771-1.071,1.89-1.071,3.355c0,3.082,1.212,4.623,3.637,4.623C233.279,208.469,234.331,208.056,235.027,207.229z"/>
	<path d="M249.207,205.256h-8.711v0.226c0,0.658,0.254,1.278,0.761,1.86c0.771,0.846,1.927,1.278,3.468,1.297
		c1.56,0.02,2.95-0.413,4.173-1.297l-0.451,3.665c-1.466,0.771-3.092,1.156-4.877,1.156c-2.876,0-5-0.959-6.372-2.876
		c-0.996-1.391-1.494-3.054-1.494-4.989c0-2.105,0.424-3.881,1.27-5.328c1.184-2.067,3.072-3.11,5.666-3.13
		c2.519-0.019,4.322,0.987,5.413,3.017c0.771,1.392,1.155,3.186,1.155,5.385V205.256z M244.725,202.605
		c0-2.312-0.695-3.485-2.086-3.523c-1.429-0.037-2.143,1.138-2.143,3.523H244.725z"/>
	<path d="M261.132,207.229c0,1.541-0.62,2.772-1.861,3.692c-1.09,0.809-2.443,1.25-4.06,1.325c-1.202,0.057-2.34-0.056-3.411-0.338
		c-0.714-0.169-1.193-0.339-1.438-0.508l-0.31-4.06c1.466,0.94,2.791,1.41,3.975,1.41c1.372,0,2.058-0.526,2.058-1.579
		c0-0.62-0.507-1.202-1.521-1.748c-1.561-0.846-2.491-1.391-2.791-1.635c-1.016-0.846-1.514-1.964-1.494-3.354
		c0.019-1.484,0.545-2.632,1.578-3.439c0.921-0.733,2.114-1.118,3.58-1.156c1.786-0.037,3.393,0.301,4.821,1.015l0.31,3.327
		c-1.015-0.808-2.218-1.193-3.608-1.156c-1.203,0.038-1.804,0.526-1.804,1.466c0,0.451,0.281,0.874,0.846,1.269
		c0.188,0.132,0.789,0.471,1.804,1.016C260.022,203.94,261.132,205.425,261.132,207.229z"/>
</g>
<path fill="#2B3990" d="M109.985,169.091H70.674v-61.524H41.186v61.524H2.269V22.454h38.918v53.27h29.487v-53.27h39.312V169.091z"/>
<path fill="#8DC63F" d="M205.403,54.112h-47.766v28.109v31.253v55.629h-39.312V22.467h87.078V54.112z"/>
<g>
	<path fill="#8DC63F" d="M168.231,102.536l3.689,11.545h-5.245l-2.939-10.17h-1.271v10.17h-5.119V82.988h6.702
		c2.011,0,3.687,0.876,5.04,2.627c1.467,1.886,2.207,4.432,2.207,7.624c0,1.641-0.183,3.197-0.544,4.672
		C170.213,99.991,169.374,101.533,168.231,102.536z M166.466,93.238c0-2.501-0.807-3.75-2.417-3.75h-1.717v7.668h2.105
		C165.788,97.157,166.466,95.852,166.466,93.238z"/>
	<path fill="#8DC63F" d="M189.739,96.034c0.02,1.778-0.159,3.682-0.521,5.711c-0.436,2.362-1.011,4.154-1.737,5.378l2.153,3.667
		l-2.756,4.001l-2.101-3.58c0,0.106-0.228,0.414-0.673,0.914c-0.576,0.667-1.217,1.195-1.923,1.585
		c-0.952,0.582-1.948,0.862-2.992,0.831c-1.592-0.03-2.982-0.71-4.179-2.04c-1.559-1.754-2.328-4.241-2.311-7.462
		c0.017-4.028,1.178-6.978,3.479-8.837c-1.142-1.807-1.686-3.889-1.637-6.251c0.054-2.559,0.646-4.486,1.793-5.793
		c1.043-1.169,2.372-1.725,4-1.669c1.798,0.056,3.206,0.818,4.21,2.293c0.918,1.363,1.378,3.114,1.4,5.251
		c0.018,1.918-0.314,3.542-0.986,4.877c-0.482,0.971-1.117,1.749-1.899,2.331c-0.535,0.419-0.896,0.629-1.066,0.629l3.229,5.378
		c0.134-0.31,0.259-0.643,0.388-1c0.29-0.892,0.518-1.867,0.673-2.921c0.29-1.945,0.443-3.515,0.443-4.709L189.739,96.034z
		 M182.438,107.208l-3.891-6.755c-1.066,0.916-1.529,2.445-1.41,4.585c0.141,2.5,1.12,3.75,2.939,3.75
		C180.978,108.788,181.765,108.258,182.438,107.208z M181.846,90.199c0-1.86-0.504-2.809-1.51-2.837
		c-0.433-0.024-0.771,0.222-1.026,0.753c-0.252,0.528-0.375,1.222-0.375,2.085c0,0.944,0.17,1.862,0.518,2.748
		c0.273,0.724,0.469,1.084,0.568,1.084C181.231,93.309,181.846,92.031,181.846,90.199z"/>
	<path fill="#8DC63F" d="M205.528,98.535c0,5.221-0.919,9.309-2.752,12.254c-1.364,2.194-3.237,3.292-5.611,3.292h-6.338V82.988
		h6.285c2.583,0,4.539,1.099,5.873,3.294C204.683,89.059,205.528,93.143,205.528,98.535z M200.177,98.535
		c0.02-6.312-0.986-9.46-3.012-9.46h-1.195v18.38h1.195C199.16,107.456,200.163,104.482,200.177,98.535z"/>
</g>
</svg>
