<?xml version="1.0" encoding="utf-8"?>
<!-- Generator: Adobe Illustrator 25.3.1, SVG Export Plug-In . SVG Version: 6.00 Build 0)  -->
<svg version="1.1" id="Layer_1" xmlns="http://www.w3.org/2000/svg" xmlns:xlink="http://www.w3.org/1999/xlink" x="0px" y="0px"
	 viewBox="0 0 841.9 595.3" style="enable-background:new 0 0 841.9 595.3;" xml:space="preserve">
<style type="text/css">
	.st0{fill:#D1D3D4;stroke:#D1D3D4;stroke-width:6.451;stroke-miterlimit:10;}
	.st1{fill:#FFDE17;}
	.st2{fill:#FFFFFF;}
	.st3{fill:none;stroke:#BCBEC0;stroke-width:3.1048;stroke-linecap:round;stroke-miterlimit:10;}
	.st4{fill:#8DC63F;}
</style>
<g>
	<path class="st0" d="M623.5,297c0,32.2-7.3,55.3-21.9,69.4c-10.7,10.4-26,15.5-45.8,15.5c-13,0-27.9-2.5-44.7-7.5l-5-44.7
		c10.6,6.7,20.5,10,29.7,10c14.1,0,23.3-5.1,27.8-15.3c2.6-6.1,3.9-15.3,3.9-27.5V166.8h56.1V297z"/>
	<path class="st1" d="M623.5,181.3V297c0,32.2-7.3,55.3-21.9,69.4c-10.7,10.4-26,15.5-45.8,15.5c-13,0-27.9-2.5-44.7-7.5l-5-44.7
		c10.6,6.7,20.5,10,29.7,10c14.1,0,23.3-5.1,27.8-15.3c2.6-6.1,3.9-15.3,3.9-27.5V181.3c0,0,6.6,0.6,15.9,1.4
		c9.3,0.8,7.7,0.8,14.1-0.4c6.5-1.2,10.1-2,14.9-0.8C617.2,182.7,622.6,182.7,623.5,181.3z"/>
	<path class="st1" d="M589.4,148.4c0,2.2-1.8,4-4,4c-2.2,0-4-1.8-4-4c0-2.2,1.8-4,4-4C587.6,144.4,589.4,146.2,589.4,148.4z"/>
	<path class="st1" d="M602.3,157.3c0,2.2-1.8,4-4,4c-2.2,0-4-1.8-4-4c0-2.2,1.8-4,4-4C600.5,153.2,602.3,155.1,602.3,157.3z"/>
	<path class="st1" d="M610,140.1c0,1.9-1.5,3.4-3.4,3.4c-1.9,0-3.4-1.5-3.4-3.4c0-1.9,1.5-3.4,3.4-3.4
		C608.4,136.7,610,138.2,610,140.1z"/>
	<path class="st2" d="M584.6,196.4c0,2.2-1.8,4-4,4c-2.2,0-4-1.8-4-4c0-2.2,1.8-4,4-4C582.8,192.4,584.6,194.2,584.6,196.4z"/>
	<path class="st2" d="M586.6,173.8c0,2.2-1.8,4-4,4c-2.2,0-4-1.8-4-4c0-2.2,1.8-4,4-4C584.8,169.8,586.6,171.6,586.6,173.8z"/>
	<path class="st2" d="M603.5,201.6c0,2.2-1.8,4-4,4c-2.2,0-4-1.8-4-4c0-2.2,1.8-4,4-4C601.7,197.6,603.5,199.4,603.5,201.6z"/>
	<path class="st2" d="M604.3,225.6c0,1.9-1.5,3.4-3.4,3.4c-1.9,0-3.4-1.5-3.4-3.4c0-1.9,1.5-3.4,3.4-3.4
		C602.8,222.2,604.3,223.7,604.3,225.6z"/>
	<path class="st2" d="M619.6,199c0,1.4-1.2,2.6-2.6,2.6c-1.4,0-2.6-1.2-2.6-2.6c0-1.4,1.2-2.6,2.6-2.6
		C618.5,196.4,619.6,197.6,619.6,199z"/>
	<path class="st2" d="M597.7,188.7c0,1.4-1.2,2.6-2.6,2.6c-1.5,0-2.6-1.2-2.6-2.6c0-1.4,1.2-2.6,2.6-2.6
		C596.5,186.1,597.7,187.3,597.7,188.7z"/>
	<path class="st2" d="M589.4,208.7c0,1.4-1.2,2.6-2.6,2.6c-1.4,0-2.6-1.2-2.6-2.6c0-1.4,1.2-2.6,2.6-2.6
		C588.2,206.1,589.4,207.2,589.4,208.7z"/>
	<line class="st3" x1="562.4" y1="164.5" x2="628.5" y2="164.5"/>
</g>
<g>
	<path class="st2" d="M286,434.3h-9v-14.1h-6.8v14.1h-8.9v-33.6h8.9v12.2h6.8v-12.2h9V434.3z"/>
	<path class="st2" d="M308,425h-12.3v0.3c0,0.9,0.4,1.8,1.1,2.6c1.1,1.2,2.7,1.8,4.9,1.8c2.2,0,4.2-0.6,5.9-1.8l-0.6,5.2
		c-2.1,1.1-4.4,1.6-6.9,1.6c-4.1,0-7.1-1.4-9-4.1c-1.4-2-2.1-4.3-2.1-7c0-3,0.6-5.5,1.8-7.5c1.7-2.9,4.3-4.4,8-4.4
		c3.6,0,6.1,1.4,7.6,4.3c1.1,2,1.6,4.5,1.6,7.6V425z M301.7,421.2c0-3.3-1-4.9-2.9-5c-2-0.1-3,1.6-3,5H301.7z"/>
	<path class="st2" d="M317.4,434.3h-6.6v-29.9h6.6V434.3z"/>
	<path class="st2" d="M328.5,434.3h-6.6v-29.9h6.6V434.3z"/>
	<path class="st2" d="M350.3,425H338v0.3c0,0.9,0.4,1.8,1.1,2.6c1.1,1.2,2.7,1.8,4.9,1.8c2.2,0,4.2-0.6,5.9-1.8l-0.6,5.2
		c-2.1,1.1-4.4,1.6-6.9,1.6c-4.1,0-7.1-1.4-9-4.1c-1.4-2-2.1-4.3-2.1-7c0-3,0.6-5.5,1.8-7.5c1.7-2.9,4.3-4.4,8-4.4
		c3.6,0,6.1,1.4,7.6,4.3c1.1,2,1.6,4.5,1.6,7.6V425z M344,421.2c0-3.3-1-4.9-2.9-5c-2-0.1-3,1.6-3,5H344z"/>
	<path class="st2" d="M371.2,434.3h-6.8v-13.8c0-1.4-0.1-2.3-0.3-2.7c-0.3-0.9-1-1.4-2.2-1.4c-0.8,0-1.4,0.3-1.8,0.8
		c-0.5,0.7-0.8,2-0.8,3.7v13.3h-6.7v-22.2h6.7v3.3c0.2-0.8,0.8-1.6,1.6-2.3c1.1-1,2.4-1.5,3.9-1.5c1.9,0,3.4,0.5,4.4,1.5
		c1.2,1.2,1.8,3,1.8,5.3V434.3z"/>
	<path class="st2" d="M381.3,406.5c0,1-0.3,1.7-1,2.3s-1.6,0.9-2.8,0.9c-1.1,0-2-0.2-2.7-0.7c-0.8-0.6-1.2-1.4-1.2-2.5
		c0-0.9,0.4-1.7,1.1-2.2c0.7-0.6,1.6-0.8,2.7-0.8c1.2,0,2.1,0.3,2.8,0.9C380.9,404.9,381.3,405.6,381.3,406.5z M380.8,434.3H374
		v-22.2h6.7V434.3z"/>
	<path class="st2" d="M399.7,427.8l-0.4,5.9c-2,0.7-4,1.1-6.1,1.1c-2.7,0-5-0.7-6.7-2.2c-2.4-2.1-3.5-5.1-3.5-9.2
		c0-3.3,0.9-6,2.6-8.2c1.9-2.3,4.4-3.5,7.6-3.5c2.4,0,4.2,0.5,5.6,1.4l0.4,5.2c-1-1-2.3-1.5-4.1-1.5c-1.4,0-2.6,0.5-3.5,1.4
		c-1,1.1-1.5,2.7-1.5,4.7c0,4.4,1.7,6.5,5.1,6.5C397.3,429.5,398.8,428.9,399.7,427.8z"/>
	<path class="st2" d="M430.7,408h-11v6.4h9.5v7.2h-9.5v12.8h-9v-33.6h20V408z"/>
	<path class="st2" d="M446.5,418.3c-1.1-0.9-2.3-1.4-3.6-1.4c-1.4,0-2.5,0.6-3.2,1.8c-0.5,0.7-0.7,1.9-0.7,3.5v12h-6.7v-22.2h6.6
		v3.3c0.1-0.3,0.2-0.7,0.3-1c0.3-0.8,0.7-1.4,1.1-1.8c0.7-0.7,1.7-1.1,3-1.1c1.4,0,2.3,0.4,2.9,1.3L446.5,418.3z"/>
	<path class="st2" d="M461,431.1c-1.2,2.4-3.1,3.5-5.9,3.5c-2.4,0-4.2-0.9-5.3-2.7c-0.8-1.2-1.2-3.2-1.2-6v-13.8h6.7v13.8
		c0,1.6,0.2,2.7,0.7,3.3c0.3,0.5,0.9,0.7,1.7,0.7c0.7,0,1.4-0.3,1.9-0.8s0.8-1.3,0.8-2.3v-14.7h6.7v22.2H461V431.1z"/>
	<path class="st2" d="M477.3,406.5c0,1-0.3,1.7-1,2.3c-0.7,0.6-1.6,0.9-2.8,0.9c-1.1,0-2-0.2-2.7-0.7c-0.8-0.6-1.2-1.4-1.2-2.5
		c0-0.9,0.4-1.7,1.1-2.2c0.7-0.6,1.6-0.8,2.7-0.8c1.2,0,2.1,0.3,2.8,0.9C477,404.9,477.3,405.6,477.3,406.5z M476.9,434.3h-6.7
		v-22.2h6.7V434.3z"/>
	<path class="st2" d="M493.4,428.7l-0.6,5c-1.2,0.7-2.7,1.1-4.5,1.1c-2,0-3.7-0.6-4.9-1.8c-1.3-1.3-2-3.1-2-5.5v-10.9h-3.1l0.8-4.4
		h2.2V408l6.7-1v5.2h4.9l-0.8,4.4h-4.1V427c0,0.8,0.3,1.4,0.8,1.9c0.5,0.5,1.1,0.7,1.9,0.7C491.8,429.5,492.7,429.2,493.4,428.7z"/>
	<path class="st2" d="M509.2,427.8c0,2.2-0.9,3.9-2.6,5.2c-1.5,1.1-3.5,1.8-5.7,1.9c-1.7,0.1-3.3-0.1-4.8-0.5c-1-0.2-1.7-0.5-2-0.7
		l-0.4-5.7c2.1,1.3,3.9,2,5.6,2c1.9,0,2.9-0.7,2.9-2.2c0-0.9-0.7-1.7-2.2-2.5c-2.2-1.2-3.5-2-3.9-2.3c-1.4-1.2-2.1-2.8-2.1-4.7
		c0-2.1,0.8-3.7,2.2-4.9c1.3-1,3-1.6,5.1-1.6c2.5-0.1,4.8,0.4,6.8,1.4l0.4,4.7c-1.4-1.1-3.1-1.7-5.1-1.6c-1.7,0.1-2.5,0.7-2.5,2.1
		c0,0.6,0.4,1.2,1.2,1.8c0.3,0.2,1.1,0.7,2.5,1.4C507.6,423.1,509.2,425.2,509.2,427.8z"/>
	<path class="st2" d="M538.6,421.8c0,5.2-1.2,9-3.6,11.3c-1.7,1.7-4.2,2.5-7.4,2.5c-2.1,0-4.5-0.4-7.3-1.2l-0.8-7.3
		c1.7,1.1,3.3,1.6,4.8,1.6c2.3,0,3.8-0.8,4.5-2.5c0.4-1,0.6-2.5,0.6-4.5v-21.1h9.1V421.8z"/>
	<path class="st2" d="M555.3,431.1c-1.2,2.4-3.1,3.5-5.9,3.5c-2.4,0-4.2-0.9-5.3-2.7c-0.8-1.2-1.2-3.2-1.2-6v-13.8h6.7v13.8
		c0,1.6,0.2,2.7,0.7,3.3c0.3,0.5,0.9,0.7,1.7,0.7c0.7,0,1.4-0.3,1.9-0.8s0.8-1.3,0.8-2.3v-14.7h6.7v22.2h-6.2V431.1z"/>
	<path class="st2" d="M571.7,406.5c0,1-0.3,1.7-1,2.3c-0.7,0.6-1.6,0.9-2.8,0.9c-1.1,0-2-0.2-2.7-0.7c-0.8-0.6-1.2-1.4-1.2-2.5
		c0-0.9,0.4-1.7,1.1-2.2c0.7-0.6,1.6-0.8,2.7-0.8c1.2,0,2.1,0.3,2.8,0.9C571.3,404.9,571.7,405.6,571.7,406.5z M571.2,434.3h-6.7
		v-22.2h6.7V434.3z"/>
	<path class="st2" d="M590.1,427.8l-0.4,5.9c-2,0.7-4,1.1-6.1,1.1c-2.7,0-5-0.7-6.7-2.2c-2.4-2.1-3.5-5.1-3.5-9.2
		c0-3.3,0.9-6,2.6-8.2c1.9-2.3,4.4-3.5,7.6-3.5c2.4,0,4.2,0.5,5.6,1.4l0.4,5.2c-1-1-2.3-1.5-4.1-1.5c-1.4,0-2.6,0.5-3.5,1.4
		c-1,1.1-1.5,2.7-1.5,4.7c0,4.4,1.7,6.5,5.1,6.5C587.7,429.5,589.2,428.9,590.1,427.8z"/>
	<path class="st2" d="M610.2,425h-12.3v0.3c0,0.9,0.4,1.8,1.1,2.6c1.1,1.2,2.7,1.8,4.9,1.8c2.2,0,4.2-0.6,5.9-1.8l-0.6,5.2
		c-2.1,1.1-4.4,1.6-6.9,1.6c-4.1,0-7.1-1.4-9-4.1c-1.4-2-2.1-4.3-2.1-7c0-3,0.6-5.5,1.8-7.5c1.7-2.9,4.3-4.4,8-4.4
		c3.6,0,6.1,1.4,7.6,4.3c1.1,2,1.6,4.5,1.6,7.6V425z M603.8,421.2c0-3.3-1-4.9-2.9-5c-2-0.1-3,1.6-3,5H603.8z"/>
	<path class="st2" d="M627,427.8c0,2.2-0.9,3.9-2.6,5.2c-1.5,1.1-3.5,1.8-5.7,1.9c-1.7,0.1-3.3-0.1-4.8-0.5c-1-0.2-1.7-0.5-2-0.7
		l-0.4-5.7c2.1,1.3,3.9,2,5.6,2c1.9,0,2.9-0.7,2.9-2.2c0-0.9-0.7-1.7-2.2-2.5c-2.2-1.2-3.5-2-3.9-2.3c-1.4-1.2-2.1-2.8-2.1-4.7
		c0-2.1,0.8-3.7,2.2-4.9c1.3-1,3-1.6,5.1-1.6c2.5-0.1,4.8,0.4,6.8,1.4l0.4,4.7c-1.4-1.1-3.1-1.7-5.1-1.6c-1.7,0.1-2.5,0.7-2.5,2.1
		c0,0.6,0.4,1.2,1.2,1.8c0.3,0.2,1.1,0.7,2.5,1.4C625.4,423.1,627,425.2,627,427.8z"/>
</g>
<path class="st2" d="M413.5,373.9H358V287h-41.7v86.9h-55V166.7h55V242H358v-75.2h55.5V373.9z"/>
<path class="st4" d="M548.3,211.5h-67.5v39.7v44.1v78.6h-55.5V166.8h123V211.5z"/>
<g>
	<path class="st4" d="M495.8,279.9l5.2,16.3h-7.4l-4.2-14.4h-1.8v14.4h-7.2v-43.9h9.5c2.8,0,5.2,1.2,7.1,3.7
		c2.1,2.7,3.1,6.3,3.1,10.8c0,2.3-0.3,4.5-0.8,6.6C498.6,276.3,497.4,278.5,495.8,279.9z M493.3,266.7c0-3.5-1.1-5.3-3.4-5.3h-2.4
		v10.8h3C492.3,272.3,493.3,270.4,493.3,266.7z"/>
	<path class="st4" d="M526.2,270.7c0,2.5-0.2,5.2-0.7,8.1c-0.6,3.3-1.4,5.9-2.5,7.6l3,5.2l-3.9,5.7l-3-5.1c0,0.1-0.3,0.6-1,1.3
		c-0.8,0.9-1.7,1.7-2.7,2.2c-1.3,0.8-2.8,1.2-4.2,1.2c-2.2,0-4.2-1-5.9-2.9c-2.2-2.5-3.3-6-3.3-10.5c0-5.7,1.7-9.9,4.9-12.5
		c-1.6-2.6-2.4-5.5-2.3-8.8c0.1-3.6,0.9-6.3,2.5-8.2c1.5-1.7,3.4-2.4,5.7-2.4c2.5,0.1,4.5,1.2,5.9,3.2c1.3,1.9,1.9,4.4,2,7.4
		c0,2.7-0.4,5-1.4,6.9c-0.7,1.4-1.6,2.5-2.7,3.3c-0.8,0.6-1.3,0.9-1.5,0.9l4.6,7.6c0.2-0.4,0.4-0.9,0.5-1.4c0.4-1.3,0.7-2.6,1-4.1
		c0.4-2.7,0.6-5,0.6-6.7L526.2,270.7z M515.9,286.5l-5.5-9.5c-1.5,1.3-2.2,3.5-2,6.5c0.2,3.5,1.6,5.3,4.2,5.3
		C513.8,288.7,514.9,288,515.9,286.5z M515,262.4c0-2.6-0.7-4-2.1-4c-0.6,0-1.1,0.3-1.4,1.1c-0.4,0.7-0.5,1.7-0.5,2.9
		c0,1.3,0.2,2.6,0.7,3.9c0.4,1,0.7,1.5,0.8,1.5C514.1,266.8,515,265,515,262.4z"/>
	<path class="st4" d="M548.5,274.2c0,7.4-1.3,13.1-3.9,17.3c-1.9,3.1-4.6,4.6-7.9,4.6h-9v-43.9h8.9c3.6,0,6.4,1.6,8.3,4.7
		C547.3,260.8,548.5,266.6,548.5,274.2z M540.9,274.2c0-8.9-1.4-13.4-4.3-13.4H535v26h1.7C539.5,286.8,540.9,282.6,540.9,274.2z"/>
</g>
</svg>
